<mxfile host="app.diagrams.net" modified="2024-06-25T02:51:18.431Z" agent="Mozilla/5.0 (Macintosh; Intel Mac OS X 10_15_7) AppleWebKit/605.1.15 (KHTML, like Gecko) Version/17.5 Safari/605.1.15" etag="R3aWdsX69KOm6pqVW_TF" version="24.6.2" type="github">
  <diagram name="Page-1" id="wPyJcDVUEyMmtfRxIGF2">
    <mxGraphModel dx="1131" dy="741" grid="1" gridSize="10" guides="1" tooltips="1" connect="1" arrows="1" fold="1" page="1" pageScale="1" pageWidth="850" pageHeight="1100" math="0" shadow="0">
      <root>
        <mxCell id="0" />
        <mxCell id="1" parent="0" />
        <mxCell id="CxZhayrWeGeC8jJis3UJ-1" value="" style="ellipse;" vertex="1" parent="1">
          <mxGeometry x="410" y="80" width="30" height="30" as="geometry" />
        </mxCell>
      </root>
    </mxGraphModel>
  </diagram>
</mxfile>
